<svg xmlns="http://www.w3.org/2000/svg" width="33" height="22" viewBox="0 0 33 22"><g fill="none" fill-rule="evenodd" stroke="#7D97AD" stroke-width="2"><path d="M26 9v9.186c-.054.05-.118.108-.192.17-.41.353-.936.71-1.588 1.048C22.304 20.397 19.76 21 16.5 21s-5.804-.603-7.72-1.596c-.652-.338-1.178-.695-1.588-1.047-.074-.063-.138-.12-.192-.17V9h19z"/><path d="M17.286 1.1L31.54 5.395c.61.137.612.385.013.55l-13.71 4.926c-.603.168-1.583.17-2.193.007L1.456 5.94c-.61-.164-.61-.41.01-.555L15.07 1.11c.614-.142 1.605-.148 2.218-.01z"/><path d="M30 5.625v13.75" stroke-linecap="square"/></g></svg>